<?xml version="1.0" encoding="UTF-8"?>
<svg width="686px" height="140px" viewBox="0 0 686 140" version="1.1" xmlns="http://www.w3.org/2000/svg" xmlns:xlink="http://www.w3.org/1999/xlink">
    <!-- Generator: Sketch 52.6 (67491) - http://www.bohemiancoding.com/sketch -->
    <title>Combined Shape</title>
    <desc>Created with Sketch.</desc>
    <g id="Page-2" stroke="none" stroke-width="1" fill="none" fill-rule="evenodd">
        <g id="Artboard" transform="translate(-130.000000, -200.000000)" fill="#EE4D2D">
            <g id="Group-3" transform="translate(130.000000, 200.000000)">
                <path d="M81.4153247,99.5520327 C82.6901975,89.1392552 75.9607547,82.4973538 58.1982957,76.8467885 C49.5946594,73.9207725 45.5418477,70.0894063 45.6366357,64.80728 C45.9957265,58.9597473 51.4618315,54.6949527 58.7108527,54.5524763 C63.7351155,54.6524597 69.3160694,55.8757574 74.7430556,59.4846604 C75.3880149,59.8895935 75.8418937,59.826104 76.2085074,59.2731954 C76.7110339,58.4673287 77.9578214,56.5331487 78.3770951,55.8397633 C78.6609574,55.3868383 78.716125,54.801935 77.9974418,54.2800213 C76.968817,53.5191472 74.0835521,51.978902 72.5348475,51.3330088 C68.3260619,49.5767993 63.6027133,48.4709822 58.5659124,48.4809806 C47.9546774,48.5254732 39.5927755,55.2168664 38.8951563,64.1463893 C38.4387699,70.5898235 41.6389916,75.8239577 48.5103655,79.8142976 C49.9662883,80.6601577 57.8492353,83.7851408 60.9842589,84.7579799 C70.8472208,87.8189736 75.9682776,93.3060659 74.7631165,99.7035077 C73.6692937,105.508048 67.5426822,109.256428 59.0980289,109.370409 C52.4021882,109.115951 46.3768844,106.395401 41.7046911,102.773 C41.5863316,102.685015 40.9995491,102.23159 40.9198068,102.1706 C40.3420517,101.719674 39.7116366,101.749169 39.3279711,102.332573 C39.0436073,102.761502 37.2381225,105.361072 36.7822376,106.043459 C36.3539365,106.64436 36.5831328,106.974805 37.0279842,107.343244 C38.9804153,108.965476 41.5702828,110.739682 43.3366487,111.637534 C48.1893905,114.103626 53.4568922,115.455402 59.0609161,115.667367 C62.6643627,115.910827 67.2101721,115.138954 70.6014742,113.704192 C76.6939821,111.126618 80.6284343,105.97797 81.4153247,99.5520327 Z M59.4962386,7.76621536 C47.9988115,7.76621536 38.6268412,18.5679286 38.1880081,32.0886921 L80.804469,32.0886921 C80.3656359,18.5679286 70.9936656,7.76621536 59.4962386,7.76621536 Z M103.14634,132.996501 L102.706503,133 L14.948912,132.987002 L14.9469059,132.987002 C8.97777281,132.764539 4.58843883,127.941837 3.98961973,121.954327 L3.93094147,120.875506 L0.0070213295,34.8282389 L0.00752285304,34.827739 C0.00200609414,34.7627498 0,34.6972606 0,34.6307716 C0,33.2425012 1.11639139,32.1141879 2.50310397,32.089192 L2.50310397,32.0886921 L30.1651361,32.0886921 C30.8431959,14.2356452 43.7158005,0 59.4962386,0 C75.2766766,0 88.1492812,14.2356452 88.827341,32.0886921 L116.410132,32.0886921 L116.449251,32.0886921 C117.858532,32.0886921 119,33.2265039 119,34.6307716 C119,34.6747643 118.998997,34.7182571 118.996991,34.7617499 L118.996991,34.7632497 L114.69743,121.14946 L114.658311,121.880839 C114.138732,127.942837 109.219288,132.832528 103.14634,132.996501 Z M166.037193,75.5214823 C184.878015,81.1640149 192.289749,88.2219336 191.104792,99.5525273 C190.374818,106.532897 186.203468,112.203948 179.665703,115.109267 C176.061832,116.710769 171.234506,117.620839 167.383144,117.427718 C161.454857,117.306643 155.850559,115.971307 150.662745,113.443224 C148.788313,112.530652 146.026412,110.717017 143.877489,108.991937 L143.86999,108.984933 C142.865526,108.139403 142.74603,107.589559 143.433005,106.569921 C143.610999,106.293247 143.935987,105.799939 144.68796,104.665228 C145.333437,103.691619 145.977414,102.712506 146.008913,102.664476 C146.812884,101.450215 147.662353,101.450215 148.834311,102.25622 C148.842311,102.262224 148.948307,102.340773 149.249796,102.564913 C149.489288,102.742524 149.636782,102.852093 149.663781,102.871605 C154.99809,106.865606 161.158368,109.116515 167.298647,109.243595 C175.701845,108.983932 181.627132,105.209069 182.580098,99.6070614 C183.62806,93.4452037 178.540243,88.1628967 168.6026,85.2630812 C165.125225,84.248446 157.528499,81.3986618 155.408075,80.2834636 C147.953843,76.119857 144.359972,70.460814 144.733959,63.419906 C145.323437,53.6723034 154.250616,46.2716701 165.651207,46.0250157 C170.661526,45.9279549 175.675846,46.8715456 180.506673,48.7917478 C182.24811,49.4841813 185.2985,51.0631699 186.398961,51.8481613 C187.677415,52.751727 187.677415,53.3751173 187.054437,54.5428484 C186.96644,54.6949436 186.634452,55.1757446 185.773483,56.4075158 L185.770483,56.4115183 C184.862016,57.711332 184.589526,58.1040779 184.509529,58.2371612 C183.762055,59.206268 183.135078,59.5054553 181.855624,58.7324713 C176.824805,55.506952 171.723988,53.9849991 165.957696,53.97049 C158.850951,54.2346554 153.631139,58.4502947 153.380648,64.041295 C153.382648,69.0789489 157.372504,72.7377395 166.037193,75.5214823 Z M218.886143,72.6962135 C230.38023,72.6962135 239.871888,81.982027 239.914887,93.3601505 L239.914887,115.587566 C239.914887,116.870369 239.585899,117.172559 238.327444,117.172559 L233.046634,117.172559 C231.775679,117.172559 231.459191,116.870369 231.459191,115.587566 L231.459191,93.4261918 C231.430692,86.5648962 225.810894,81.0139209 218.886143,81.0139209 C211.978391,81.0139209 206.366093,86.5388799 206.312595,93.3776614 L206.312595,115.587566 C206.312595,116.691758 205.87861,117.173059 204.725652,117.173059 L199.432342,117.173059 C198.173887,117.173059 197.845399,116.706767 197.845399,115.587566 L197.845399,47.5849923 C197.845399,46.4177615 198.173887,46 199.432342,46 L204.725652,46 C205.860111,46 206.312595,46.4402756 206.312595,47.5849923 L206.312595,76.8503143 C209.928465,74.1746391 214.314307,72.6962135 218.886143,72.6962135 Z M269.387727,109.162644 C277.344941,109.162644 283.792709,102.840186 283.792709,95.0443049 C283.792709,87.2484241 277.344441,80.9259659 269.387727,80.9259659 C261.430013,80.9259659 254.982245,87.2484241 254.982245,95.0443049 C254.982245,102.840186 261.430013,109.162644 269.387727,109.162644 Z M269.392227,72.7423424 C281.955275,72.7423424 292.141409,82.7300954 292.141409,95.0553118 C292.141409,107.380028 281.955275,117.368281 269.392227,117.368281 C256.829179,117.368281 246.642045,107.380028 246.642045,95.0553118 C246.642045,82.7300954 256.828679,72.7423424 269.392227,72.7423424 Z M409.943224,89.8754188 L435.144818,89.8754188 C433.332383,84.7291969 428.060073,80.8827889 422.432275,80.8827889 C416.596485,80.8827889 411.596665,84.4775394 409.943224,89.8754188 Z M441.395594,98.057041 C441.358095,98.057041 441.320596,98.0560404 441.295097,98.0550398 L409.425243,98.0550398 C410.233714,102.150604 413.044613,105.638287 416.932473,107.589509 C417.938937,108.07081 419.035897,108.470561 420.206355,108.785258 C425.900151,109.977504 432.435916,109.10896 437.417237,104.681188 C437.488734,104.602639 437.623729,104.517586 437.769724,104.389005 C438.604194,103.652044 439.191673,103.838661 439.846149,104.656173 C439.846149,104.656173 440.781616,105.956987 442.452556,108.618153 C443.17203,109.740356 443.119032,110.279693 441.913075,111.523472 C441.863577,111.573503 441.76908,111.662059 441.630085,111.784635 C441.401093,111.985761 441.127603,112.209401 440.809615,112.450052 C439.903647,113.13298 438.819686,113.815907 437.557232,114.451805 C432.890899,116.803778 427.139606,117.910971 420.303852,117.087455 C420.07686,117.052934 419.895867,117.024416 419.720373,116.994897 L419.720373,117.006905 L419.331387,116.934359 C414.335066,116.002776 409.847228,113.511216 406.545346,109.874439 C406.527347,109.855928 406.526347,109.854927 406.521847,109.848924 C403.559454,106.581878 401.654022,102.515833 401.057544,98.0550398 L401.052544,98.0550398 L401.017545,97.7648581 C400.911049,96.8567896 400.856551,95.9412164 400.856551,95.02064 C400.856551,82.6999265 410.511204,72.7076707 422.425776,72.7076707 C434.341347,72.7076707 443.995,82.6994262 443.995,95.02064 C443.995,95.1156996 443.9945,95.1592268 443.994,95.1852431 C443.998,95.2442801 444,95.3053183 444,95.3728606 C444,96.8077589 442.903039,97.9915 441.512089,98.0545395 C441.471591,98.0560404 441.433592,98.057041 441.395594,98.057041 Z M321.494254,109.047122 C329.306973,109.047122 335.640745,102.726164 335.640745,94.9287825 C335.640745,87.1319012 329.306973,80.8104436 321.494254,80.8104436 C313.81453,80.8104436 307.542256,86.9257721 307.351762,94.5625533 L307.351762,95.290509 C307.544256,102.934295 313.81603,109.047122 321.494254,109.047122 Z M321.498254,72.6268201 C333.84481,72.6268201 343.85445,82.6165743 343.85445,94.9397894 C343.85445,107.263505 333.84481,117.253759 321.498254,117.253759 C316.264442,117.253759 311.30962,115.451131 307.351762,112.218107 L307.351762,138.415508 C307.351762,139.591244 307.023274,140 305.76432,140 L300.729501,140 C299.470546,140 299.142058,139.581738 299.142058,138.415508 L299.142058,74.2113121 C299.142058,72.9795409 299.470546,72.6268201 300.729501,72.6268201 L305.76432,72.6268201 C307.023274,72.6268201 307.351762,73.011561 307.351762,74.2113121 L307.351762,77.6614721 C311.30962,74.4289483 316.264442,72.6268201 321.498254,72.6268201 Z M360.00607,89.8754188 L385.207664,89.8754188 C383.395729,84.7291969 378.123418,80.8827889 372.495121,80.8827889 C366.65983,80.8827889 361.66001,84.4775394 360.00607,89.8754188 Z M394.057845,95.02064 C394.057845,95.1156996 394.057845,95.1592268 394.056845,95.1852431 C394.061345,95.2442801 394.062845,95.3053183 394.062845,95.3728606 C394.062845,96.8077589 392.965885,97.9915 391.575435,98.0545395 C391.534936,98.0560404 391.496937,98.057041 391.458439,98.057041 C391.42094,98.057041 391.383442,98.0560404 391.357942,98.0550398 L359.488088,98.0550398 C360.296559,102.150604 363.107958,105.638287 366.995318,107.589509 C368.002282,108.07081 369.099243,108.470561 370.269701,108.785258 C375.963496,109.977504 382.498761,109.10896 387.480082,104.681188 C387.551579,104.602639 387.686574,104.517586 387.832569,104.389005 C388.667039,103.652044 389.255018,103.838661 389.909495,104.656173 C389.909495,104.656173 390.844961,105.956987 392.515401,108.618153 C393.234875,109.740356 393.181877,110.279693 391.97642,111.523472 C391.926922,111.573503 391.832425,111.662059 391.69343,111.784635 C391.464439,111.985761 391.190448,112.209401 390.87246,112.450052 C389.966992,113.13298 388.883031,113.815907 387.620077,114.451805 C382.954245,116.803778 377.202951,117.910971 370.367197,117.087455 C370.140205,117.052934 369.958712,117.024416 369.783718,116.994897 L369.783718,117.006905 L369.394732,116.934359 C364.398412,116.002776 359.910073,113.511216 356.608192,109.874439 C356.590692,109.855928 356.589692,109.854927 356.584693,109.848924 C353.622799,106.581878 351.716868,102.515833 351.120889,98.0550398 L351.115389,98.0550398 L351.08089,97.7648581 C350.973894,96.8567896 350.919396,95.9412164 350.919396,95.02064 C350.919396,82.6999265 360.574549,72.7076707 372.489121,72.7076707 C384.404192,72.7076707 394.057845,82.6994262 394.057845,95.02064 Z M480,48 L491.571429,48 L495.428571,92.7022434 L516.137755,48 L525.688776,48 L533.72449,91.5295717 L548.739796,48 L561,48 L537.122449,117 L526.744898,117 L518.25,71.3127124 L497.081633,117 L486.015306,117 L480,48 Z M571.378049,48 L582.963415,48 L594.502439,96.0795377 L618.043902,48 L629.073171,48 L630,117 L618.043902,117 L617.487805,75.7219579 L597.282927,117 L587.504878,117 L577.12439,73.6580557 L566.234146,117 L554,117 L571.378049,48 Z M686,57.2776699 L676.651163,65.5728155 C672.806182,60.6019169 669.224823,58.1165049 665.906977,58.1165049 C664.263558,58.1165049 662.89923,58.6058203 661.813953,59.584466 C660.728677,60.5631117 660.186047,61.7359155 660.186047,63.1029126 C660.186047,64.3767054 660.682166,65.7902835 661.674419,67.3436893 C662.666672,68.8970951 665.674393,72.3300705 670.697674,77.6427184 C673.364354,80.469917 675.116275,82.4737805 675.953488,83.6543689 C677.969002,86.3883632 679.4186,88.9436774 680.302326,91.3203883 C681.186051,93.6970993 681.627907,96.1126091 681.627907,98.5669903 C681.627907,104.066047 679.674438,108.679593 675.767442,112.407767 C671.860446,116.135941 666.852744,118 660.744186,118 C651.441814,118 643.860494,113.57286 638,104.718447 L647.860465,96.7495146 C651.829477,102.807797 656.124008,105.836893 660.744186,105.836893 C662.945747,105.836893 664.798442,105.122337 666.302326,103.693204 C667.806209,102.264071 668.55814,100.539816 668.55814,98.5203883 C668.55814,96.9359144 668.10078,95.3203966 667.186047,93.6737864 C666.271313,92.0271762 663.658936,88.9204112 659.348837,84.3533981 C654.790675,79.53784 651.798457,75.9029249 650.372093,73.4485437 C648.449603,70.1242552 647.488372,66.8621519 647.488372,63.6621359 C647.488372,59.4368721 648.868203,55.6466187 651.627907,52.2912621 C655.100793,48.0970664 659.782916,46 665.674419,46 C673.767482,46 680.542608,49.7591857 686,57.2776699 Z M460,73 L464,73 L464,117 L460,117 L460,73 Z" id="Combined-Shape"></path>
            </g>
        </g>
    </g>
</svg>